
<svg xmlns="http://www.w3.org/2000/svg" xmlns:xlink="http://www.w3.org/1999/xlink" version="1.1" width="3162.2775800711747" 
	height="435.5161956253098" viewBox="0 0 3162.2775800711747 435.5161956253098">
			
	<g transform="scale(8.11387900355872) translate(10, 10)">
		<defs id="SvgjsDefs1491"><linearGradient id="SvgjsLinearGradient1496"><stop id="SvgjsStop1497" stop-color="#8f5e25" offset="0"></stop><stop id="SvgjsStop1498" stop-color="#fbf4a1" offset="0.5"></stop><stop id="SvgjsStop1499" stop-color="#8f5e25" offset="1"></stop></linearGradient><linearGradient id="SvgjsLinearGradient1500"><stop id="SvgjsStop1501" stop-color="#8f5e25" offset="0"></stop><stop id="SvgjsStop1502" stop-color="#fbf4a1" offset="0.5"></stop><stop id="SvgjsStop1503" stop-color="#8f5e25" offset="1"></stop></linearGradient></defs><g id="SvgjsG1492" transform="matrix(0.4317366788726498,0,0,0.4317366788726498,0.0004299555081489225,-10.793416971816246)" fill="url(#SvgjsLinearGradient1496)"><path xmlns="http://www.w3.org/2000/svg" d="M74.313 0l-28.094 78h8.469l28.094-78h-8.469zm-36.313 11.25l-2.188 1.406-34 22-1.813 1.156v4.25l1.688 1.219 34 24 2.313 1.594v-9.781l-26.844-18.969 26.844-17.375v-9.5zm52 0v9.5l26.844 17.375-26.844 18.969v9.781l2.313-1.594 34-24 1.688-1.219v-4.25l-1.813-1.156-34-22-2.188-1.406z" transform="translate(0 25)"></path></g><g id="SvgjsG1493" transform="matrix(1.1793247609821993,0,0,1.1793247609821993,73.58480938706798,2.207091356199986)" fill="url(#SvgjsLinearGradient1500)"><path d="M16.2 6 l0 14 l-3 0 l0 -7.44 l-3.26 7.44 l-2.52 0 l-3.22 -7.4 l0 7.4 l-3 0 l0 -14 l2.88 0 l4.62 10.1 l4.62 -10.1 l2.88 0 z M29.78 20 l-1.06 -2.5 l-6.76 0 l-1.06 2.5 l-3.1 0 l6.22 -14 l2.64 0 l6.24 14 l-3.12 0 z M22.980000000000004 15.120000000000001 l4.72 0 l-2.36 -5.54 z M45.52 20 l-3.1 0 l-2.98 -4.66 l-0.04 0 l-1.98 0 l0 4.66 l-2.92 0 l0 -14 l4.9 0 c3.14 0 5.18 1.9 5.18 4.76 c0 1.9 -0.92 3.32 -2.48 4.04 z M37.42 8.68 l0 4.14 l1.8 0 c1.44 0 2.44 -0.56 2.44 -2.06 c0 -1.48 -1 -2.08 -2.44 -2.08 l-1.8 0 z M50.04 6 l0 14 l-2.92 0 l0 -14 l2.92 0 z M61.94 6 l0 2.68 l-3.48 0 l0 11.32 l-2.92 0 l0 -11.32 l-3.5 0 l0 -2.68 l9.9 0 z M75.12 20 l-1.06 -2.5 l-6.76 0 l-1.06 2.5 l-3.1 0 l6.22 -14 l2.64 0 l6.24 14 l-3.12 0 z M68.32000000000001 15.120000000000001 l4.72 0 l-2.36 -5.54 z M100.84 6 l0 14 l-3 0 l0 -7.44 l-3.26 7.44 l-2.52 0 l-3.22 -7.4 l0 7.4 l-3 0 l0 -14 l2.88 0 l4.62 10.1 l4.62 -10.1 l2.88 0 z M114.42 20 l-1.06 -2.5 l-6.76 0 l-1.06 2.5 l-3.1 0 l6.22 -14 l2.64 0 l6.24 14 l-3.12 0 z M107.62 15.120000000000001 l4.72 0 l-2.36 -5.54 z M122.06000000000002 17.32 l5.5 0 l0 2.68 l-8.42 0 l0 -14 l2.92 0 l0 11.32 z M140.74 6 l3.12 0 l-6.24 14 l-2.64 0 l-6.22 -14 l3.1 0 l4.44 10.42 z M148.38000000000002 6 l0 14 l-2.92 0 l0 -14 l2.92 0 z M159.94 6 l2.92 0 l0 14 l-2.22 0 l-6.94 -8.68 l0 8.68 l-2.92 0 l0 -14 l2.26 0 l6.9 8.7 l0 -8.7 z M169.84 5.76 c2.46 0 4.02 1.54 4.76 2.9 l-2.16 1.28 c-0.76 -1.06 -1.5 -1.6 -2.6 -1.6 c-0.98 0 -1.7 0.58 -1.7 1.38 s0.46 1.22 1.56 1.62 l0.96 0.34 c3.1 1.1 4.32 2.48 4.32 4.4 c0 2.82 -2.68 4.22 -5.06 4.22 c-2.52 0 -4.48 -1.5 -5.16 -3.46 l2.24 -1.18 c0.5 1.02 1.34 2 2.92 2 c1.14 0 2.02 -0.5 2.02 -1.54 c0 -1 -0.6 -1.44 -2.12 -2.02 l-0.86 -0.3 c-2.06 -0.74 -3.72 -1.76 -3.72 -4.2 c0 -2.24 2.1 -3.84 4.6 -3.84 z M181.88 6 c3.98 0 7.1 3.12 7.1 6.92 c0 3.96 -3.12 7.08 -7.1 7.08 l-5 0 l0 -14 l5 0 z M181.86 17.240000000000002 c2.68 0 4.12 -1.94 4.12 -4.32 c0 -2.22 -1.44 -4.16 -4.12 -4.16 l-2.06 0 l0 8.48 l2.06 0 z M202.16 20 l-1.06 -2.5 l-6.76 0 l-1.06 2.5 l-3.1 0 l6.22 -14 l2.64 0 l6.24 14 l-3.12 0 z M195.36 15.120000000000001 l4.72 0 l-2.36 -5.54 z M216.38 6 l0 2.68 l-3.48 0 l0 11.32 l-2.92 0 l0 -11.32 l-3.5 0 l0 -2.68 l9.9 0 z M227.16 6 l0 2.68 l-3.48 0 l0 11.32 l-2.92 0 l0 -11.32 l-3.5 0 l0 -2.68 l9.9 0 z M232.08 17.32 l5.92 0 l0 2.68 l-6.32 0 l-2.52 0 l0 -14 l2.92 0 l5.74 0 l0 2.68 l-5.74 0 l0 2.96 l4.34 0 l0 2.64 l-4.34 0 l0 3.04 z M251.12 20 l-3.1 0 l-2.98 -4.66 l-0.04 0 l-1.98 0 l0 4.66 l-2.92 0 l0 -14 l4.9 0 c3.14 0 5.18 1.9 5.18 4.76 c0 1.9 -0.92 3.32 -2.48 4.04 z M243.02 8.68 l0 4.14 l1.8 0 c1.44 0 2.44 -0.56 2.44 -2.06 c0 -1.48 -1 -2.08 -2.44 -2.08 l-1.8 0 z"></path></g>
	</g>
</svg>
	